<svg width="46" height="46" viewBox="0 0 46 46" fill="none" xmlns="http://www.w3.org/2000/svg">
<g clip-path="url(#clip0_150_3472)">
<path d="M8.625 40.25C10.2128 40.25 11.5 38.9628 11.5 37.375C11.5 35.7872 10.2128 34.5 8.625 34.5C7.03718 34.5 5.75 35.7872 5.75 37.375C5.75 38.9628 7.03718 40.25 8.625 40.25Z" fill="black"/>
<path d="M40.25 25.875H35.9375V23C35.9366 22.2378 35.6334 21.507 35.0945 20.968C34.5555 20.4291 33.8247 20.1259 33.0625 20.125H27.3125C26.5503 20.1259 25.8195 20.4291 25.2805 20.968C24.7416 21.507 24.4384 22.2378 24.4375 23V25.875H20.125C19.3628 25.8759 18.632 26.1791 18.093 26.718C17.5541 27.257 17.2509 27.9878 17.25 28.75V40.25C17.2509 41.0122 17.5541 41.743 18.093 42.282C18.632 42.8209 19.3628 43.1241 20.125 43.125H40.25C41.0122 43.1241 41.743 42.8209 42.282 42.282C42.8209 41.743 43.1241 41.0122 43.125 40.25V28.75C43.1241 27.9878 42.8209 27.257 42.282 26.718C41.743 26.1791 41.0122 25.8759 40.25 25.875ZM27.3125 23H33.0625V25.875H27.3125V23ZM40.25 40.25H20.125V28.75H40.25V40.25Z" fill="black"/>
<path d="M14.375 8.625H20.125V17.25H23V8.625H28.75V17.25H31.625V8.625H37.375V17.25H40.25V8.63204C40.25 8.25356 40.1755 7.87877 40.0307 7.52909C39.8859 7.17941 39.6736 6.86168 39.406 6.59405C39.1383 6.32642 38.8206 6.11413 38.4709 5.96931C38.1212 5.82448 37.7464 5.74996 37.368 5.75H5.75704C5.37856 5.74996 5.00377 5.82448 4.65409 5.96931C4.30441 6.11413 3.98668 6.32642 3.71905 6.59405C3.45142 6.86168 3.23913 7.17941 3.09431 7.52909C2.94948 7.87877 2.87496 8.25356 2.875 8.63204V28.7427C2.87492 29.1212 2.94942 29.496 3.09422 29.8457C3.23903 30.1954 3.45131 30.5132 3.71895 30.7808C3.98658 31.0485 4.30432 31.2608 4.65402 31.4057C5.00372 31.5505 5.37853 31.625 5.75704 31.625H14.375V8.625ZM11.5 28.75H5.75V8.625H11.5V28.75Z" fill="black"/>
</g>
<defs>
<clipPath id="clip0_150_3472">
<rect width="46" height="46" fill="white"/>
</clipPath>
</defs>
</svg>
