<svg width="46" height="46" viewBox="0 0 46 46" fill="none" xmlns="http://www.w3.org/2000/svg">
<g clip-path="url(#clip0_150_3477)">
<path d="M39.2468 2.87503C38.7354 2.87506 38.2293 2.97759 37.7582 3.17657C37.2871 3.37555 36.8607 3.66694 36.5042 4.03351L35.9391 4.61613L35.3684 4.03351C35.0119 3.6669 34.5855 3.37549 34.1144 3.17651C33.6434 2.97752 33.1372 2.875 32.6258 2.875C32.1144 2.875 31.6083 2.97752 31.1372 3.17651C30.6661 3.37549 30.2397 3.6669 29.8832 4.03351C29.1556 4.78419 28.7488 5.78856 28.7488 6.83398C28.7488 7.87939 29.1556 8.88376 29.8832 9.63444L35.9391 15.8125L41.9893 9.63444C42.7168 8.88376 43.1237 7.87939 43.1237 6.83398C43.1237 5.78856 42.7168 4.78419 41.9893 4.03351C41.6328 3.66693 41.2064 3.37553 40.7353 3.17655C40.2643 2.97757 39.7581 2.87504 39.2468 2.87503Z" fill="black"/>
<path d="M34.2438 25.8751H21.6818L17.0549 8.57522C16.6603 7.10215 15.6967 5.84617 14.3761 5.08357C13.0555 4.32097 11.486 4.11423 10.0129 4.50882C8.53984 4.90341 7.28385 5.86702 6.52126 7.18766C5.75866 8.50829 5.55191 10.0778 5.94651 11.5508L12.284 35.243C12.4476 35.8546 12.8085 36.3951 13.3107 36.7806C13.8129 37.1661 14.4283 37.3751 15.0614 37.3751H27.3125V40.2501H5.75V43.1251H27.3125C28.075 43.1251 28.8063 42.8222 29.3454 42.283C29.8846 41.7439 30.1875 41.0126 30.1875 40.2501V37.3751H34.5C35.3033 37.3741 36.0975 37.205 36.8315 36.8786C37.5655 36.5523 38.2231 36.0759 38.762 35.4802C39.3008 34.8844 39.7091 34.1825 39.9604 33.4196C40.2117 32.6566 40.3006 31.8495 40.2213 31.0501C40.0369 29.6029 39.325 28.2746 38.2221 27.3197C37.1191 26.3647 35.7025 25.8504 34.2438 25.8751ZM34.5 34.5001H15.0616L8.72361 10.8074C8.52628 10.0708 8.62961 9.28608 9.01089 8.62573C9.39216 7.96539 10.0201 7.48355 10.7567 7.28622C11.4932 7.08888 12.278 7.19222 12.9383 7.57349C13.5987 7.95476 14.0805 8.58274 14.2778 9.31927L19.4732 28.7501H34.5C35.2625 28.7501 35.9938 29.053 36.5329 29.5922C37.0721 30.1313 37.375 30.8626 37.375 31.6251C37.375 32.3876 37.0721 33.1189 36.5329 33.658C35.9938 34.1972 35.2625 34.5001 34.5 34.5001Z" fill="black"/>
</g>
<defs>
<clipPath id="clip0_150_3477">
<rect width="46" height="46" fill="white"/>
</clipPath>
</defs>
</svg>
