<svg width="46" height="46" viewBox="0 0 46 46" fill="none" xmlns="http://www.w3.org/2000/svg">
<g clip-path="url(#clip0_150_3481)">
<path d="M23 40.25C22.6773 40.2493 22.3549 40.2282 22.0349 40.1868C19.0809 35.4528 17.4455 30.0155 17.2977 24.4375H43.0531C43.0871 23.961 43.125 23.485 43.125 23C43.125 19.0197 41.9447 15.1287 39.7333 11.8192C37.522 8.50962 34.3789 5.93015 30.7015 4.40693C27.0242 2.88372 22.9777 2.48518 19.0738 3.26171C15.1699 4.03823 11.584 5.95495 8.76948 8.76948C5.95495 11.584 4.03823 15.1699 3.26171 19.0738C2.48518 22.9777 2.88372 27.0242 4.40693 30.7015C5.93015 34.3789 8.50962 37.522 11.8192 39.7333C15.1287 41.9447 19.0197 43.125 23 43.125V40.25ZM40.177 21.5625H31.572C31.4175 16.2726 30.0643 11.0867 27.6144 6.39573C31.0046 7.34212 34.0246 9.30193 36.2698 12.0126C38.5151 14.7233 39.8784 18.0554 40.177 21.5625ZM23.9651 5.81312C26.9191 10.5471 28.5546 15.9844 28.7023 21.5625H17.2977C17.4455 15.9844 19.0809 10.5471 22.0349 5.81312C22.6755 5.72902 23.3245 5.72902 23.9651 5.81312ZM18.3856 6.39573C15.9358 11.0867 14.5826 16.2726 14.4281 21.5625H5.82303C6.12172 18.0554 7.485 14.7234 9.73025 12.0127C11.9755 9.302 14.9955 7.34217 18.3856 6.39573ZM5.82303 24.4375H14.4281C14.5826 29.7274 15.9358 34.9133 18.3856 39.6043C14.9955 38.6578 11.9755 36.698 9.73025 33.9873C7.485 31.2767 6.12172 27.9446 5.82303 24.4375Z" fill="black"/>
<path fill-rule="evenodd" clip-rule="evenodd" d="M35.9375 35.9375L43.125 38.8125V35.9375L35.9375 32.3438V28.75C35.9375 28.3688 35.7861 28.0031 35.5165 27.7335C35.2469 27.4639 34.8812 27.3125 34.5 27.3125C34.1188 27.3125 33.7531 27.4639 33.4835 27.7335C33.2139 28.0031 33.0625 28.3688 33.0625 28.75V32.3438L25.875 35.9375V38.8125L33.0625 35.9375V40.9688L30.1875 43.125V44.5625L34.5 43.125L38.8125 44.5625V43.125L35.9375 40.9688V35.9375Z" fill="black"/>
</g>
<defs>
<clipPath id="clip0_150_3481">
<rect width="46" height="46" fill="white"/>
</clipPath>
</defs>
</svg>
