<svg width="46" height="46" viewBox="0 0 46 46" fill="none" xmlns="http://www.w3.org/2000/svg">
<g clip-path="url(#clip0_150_3485)">
<path d="M42.2194 21.2031L28.75 14.375V8.625C28.75 7.1 28.1442 5.63747 27.0659 4.55914C25.9875 3.4808 24.525 2.875 23 2.875C21.475 2.875 20.0125 3.4808 18.9341 4.55914C17.8558 5.63747 17.25 7.1 17.25 8.625V14.375L3.78063 21.2031C3.51316 21.3096 3.28384 21.494 3.12237 21.7324C2.9609 21.9707 2.87472 22.2521 2.875 22.54V29.7275C2.875 30.1087 3.02645 30.4744 3.29603 30.744C3.56562 31.0135 3.93125 31.165 4.3125 31.165C4.45424 31.1617 4.59472 31.1375 4.72938 31.0931L17.25 25.875V33.0625L12.2906 35.535C12.0514 35.6555 11.8506 35.8406 11.7109 36.0692C11.5712 36.2978 11.4981 36.5608 11.5 36.8287V41.6875C11.5 42.0687 11.6515 42.4344 11.921 42.704C12.1906 42.9735 12.5563 43.125 12.9375 43.125C13.0708 43.146 13.2067 43.146 13.34 43.125L23 40.25L32.66 43.125C32.7933 43.146 32.9292 43.146 33.0625 43.125C33.4437 43.125 33.8094 42.9735 34.079 42.704C34.3486 42.4344 34.5 42.0687 34.5 41.6875V36.8287C34.5019 36.5608 34.4288 36.2978 34.2891 36.0692C34.1494 35.8406 33.9486 35.6555 33.7094 35.535L28.75 33.0625V25.875L41.2706 31.0644C41.4053 31.1088 41.5458 31.133 41.6875 31.1362C42.0687 31.1362 42.4344 30.9848 42.704 30.7152C42.9735 30.4456 43.125 30.08 43.125 29.6987V22.5112C43.1196 22.2283 43.0308 21.9532 42.8697 21.7205C42.7086 21.4878 42.4823 21.3078 42.2194 21.2031ZM40.25 27.5281L25.875 21.5625V34.845L31.625 37.72V39.7756L23 37.26L14.375 39.7756V37.72L20.125 34.845V21.5625L5.75 27.5281V23.4312L20.125 16.1431V8.625C20.125 7.8625 20.4279 7.13123 20.9671 6.59207C21.5062 6.0529 22.2375 5.75 23 5.75C23.7625 5.75 24.4938 6.0529 25.0329 6.59207C25.5721 7.13123 25.875 7.8625 25.875 8.625V16.1431L40.25 23.4312V27.5281Z" fill="black"/>
</g>
<defs>
<clipPath id="clip0_150_3485">
<rect width="46" height="46" fill="white"/>
</clipPath>
</defs>
</svg>
