<svg width="60" height="60" viewBox="0 0 60 60" fill="none" xmlns="http://www.w3.org/2000/svg">
<circle cx="30" cy="30" r="30" fill="#202020"/>
<g clip-path="url(#clip0_150_2907)">
<path d="M39.22 30.5199L25.9713 39.3524C25.8771 39.415 25.7678 39.451 25.6549 39.4564C25.5419 39.4618 25.4297 39.4364 25.33 39.3831C25.2303 39.3297 25.147 39.2503 25.0889 39.1533C25.0308 39.0564 25.0001 38.9455 25 38.8324V21.1674C25.0001 21.0543 25.0308 20.9434 25.0889 20.8465C25.147 20.7495 25.2303 20.6701 25.33 20.6167C25.4297 20.5634 25.5419 20.538 25.6549 20.5434C25.7678 20.5488 25.8771 20.5848 25.9713 20.6474L39.22 29.4799C39.3056 29.537 39.3758 29.6143 39.4243 29.705C39.4729 29.7957 39.4983 29.897 39.4983 29.9999C39.4983 30.1028 39.4729 30.2041 39.4243 30.2948C39.3758 30.3855 39.3056 30.4628 39.22 30.5199Z" fill="white"/>
</g>
<defs>
<clipPath id="clip0_150_2907">
<rect width="30" height="30" fill="white" transform="translate(15 15)"/>
</clipPath>
</defs>
</svg>
