<svg width="18" height="18" viewBox="0 0 18 18" fill="none" xmlns="http://www.w3.org/2000/svg">
<g clip-path="url(#clip0_150_4466)">
<path d="M15.75 5.625H12.375V3.375C12.375 3.07663 12.2565 2.79048 12.0455 2.5795C11.8345 2.36853 11.5484 2.25 11.25 2.25H6.75C6.45163 2.25 6.16548 2.36853 5.9545 2.5795C5.74353 2.79048 5.625 3.07663 5.625 3.375V5.625H2.25C1.95163 5.625 1.66548 5.74353 1.4545 5.9545C1.24353 6.16548 1.125 6.45163 1.125 6.75V14.625C1.125 14.9234 1.24353 15.2095 1.4545 15.4205C1.66548 15.6315 1.95163 15.75 2.25 15.75H15.75C16.0484 15.75 16.3345 15.6315 16.5455 15.4205C16.7565 15.2095 16.875 14.9234 16.875 14.625V6.75C16.875 6.45163 16.7565 6.16548 16.5455 5.9545C16.3345 5.74353 16.0484 5.625 15.75 5.625ZM6.75 3.375H11.25V5.625H6.75V3.375ZM2.25 14.625V6.75H15.75V14.625H2.25Z" fill="white"/>
</g>
<defs>
<clipPath id="clip0_150_4466">
<rect width="18" height="18" fill="white"/>
</clipPath>
</defs>
</svg>
