<svg width="18" height="18" viewBox="0 0 18 18" fill="none" xmlns="http://www.w3.org/2000/svg">
<g clip-path="url(#clip0_150_4452)">
<path d="M16.5206 8.29687L11.25 5.625V3.375C11.25 2.77826 11.0129 2.20597 10.591 1.78401C10.169 1.36205 9.59674 1.125 9 1.125C8.40326 1.125 7.83097 1.36205 7.40901 1.78401C6.98705 2.20597 6.75 2.77826 6.75 3.375V5.625L1.47938 8.29687C1.37471 8.33856 1.28498 8.41071 1.2218 8.50398C1.15861 8.59725 1.12489 8.70734 1.125 8.82V11.6325C1.125 11.7817 1.18426 11.9248 1.28975 12.0302C1.39524 12.1357 1.53832 12.195 1.6875 12.195C1.74296 12.1937 1.79793 12.1842 1.85063 12.1669L6.75 10.125V12.9375L4.80938 13.905C4.71576 13.9522 4.63718 14.0246 4.58252 14.114C4.52785 14.2035 4.49927 14.3064 4.5 14.4112V16.3125C4.5 16.4617 4.55926 16.6048 4.66475 16.7102C4.77024 16.8157 4.91332 16.875 5.0625 16.875C5.11468 16.8832 5.16782 16.8832 5.22 16.875L9 15.75L12.78 16.875C12.8322 16.8832 12.8853 16.8832 12.9375 16.875C13.0867 16.875 13.2298 16.8157 13.3352 16.7102C13.4407 16.6048 13.5 16.4617 13.5 16.3125V14.4112C13.5007 14.3064 13.4721 14.2035 13.4175 14.114C13.3628 14.0246 13.2842 13.9522 13.1906 13.905L11.25 12.9375V10.125L16.1494 12.1556C16.2021 12.173 16.257 12.1825 16.3125 12.1837C16.4617 12.1837 16.6048 12.1245 16.7102 12.019C16.8157 11.9135 16.875 11.7704 16.875 11.6212V8.80875C16.8729 8.69802 16.8381 8.59037 16.7751 8.49931C16.712 8.40826 16.6235 8.33783 16.5206 8.29687ZM15.75 10.7719L10.125 8.4375V13.635L12.375 14.76V15.5644L9 14.58L5.625 15.5644V14.76L7.875 13.635V8.4375L2.25 10.7719V9.16875L7.875 6.31687V3.375C7.875 3.07663 7.99353 2.79048 8.2045 2.5795C8.41548 2.36853 8.70163 2.25 9 2.25C9.29837 2.25 9.58452 2.36853 9.7955 2.5795C10.0065 2.79048 10.125 3.07663 10.125 3.375V6.31687L15.75 9.16875V10.7719Z" fill="white"/>
</g>
<defs>
<clipPath id="clip0_150_4452">
<rect width="18" height="18" fill="white"/>
</clipPath>
</defs>
</svg>
