<svg width="18" height="18" viewBox="0 0 18 18" fill="none" xmlns="http://www.w3.org/2000/svg">
<g clip-path="url(#clip0_150_4421)">
<path d="M16.875 6.18799V1.68799C16.875 1.5388 16.8157 1.39573 16.7102 1.29024C16.6048 1.18475 16.4617 1.12549 16.3125 1.12549H10.6875C10.5383 1.12549 10.3952 1.18475 10.2898 1.29024C10.1843 1.39573 10.125 1.5388 10.125 1.68799V6.18799C10.1263 6.98481 10.4093 7.75551 10.924 8.36382C11.4387 8.97212 12.1519 9.37885 12.9375 9.51208V15.7502H10.6875V16.8752H16.3125V15.7502H14.0625V9.51208C14.8481 9.37885 15.5613 8.97212 16.076 8.36382C16.5907 7.75551 16.8737 6.98481 16.875 6.18799ZM11.25 6.18799V2.25021H15.75V6.18799C15.75 6.78473 15.5129 7.35702 15.091 7.77898C14.669 8.20094 14.0967 8.43799 13.5 8.43799C12.9033 8.43799 12.331 8.20094 11.909 7.77898C11.4871 7.35702 11.25 6.78473 11.25 6.18799Z" fill="white"/>
<path d="M6.75 1.125V6.19875C6.74934 6.78932 6.51445 7.35551 6.09686 7.77311C5.67926 8.1907 5.11307 8.42559 4.5225 8.42625C3.92598 8.43147 3.35175 8.1999 2.92573 7.78232C2.49972 7.36474 2.25671 6.79525 2.25 6.19875V1.125H1.125V6.19875C1.13049 6.99175 1.41556 7.75739 1.93002 8.36088C2.44449 8.96437 3.15536 9.36701 3.9375 9.49792V16.875H5.0625V9.50361C5.84676 9.37508 6.55994 8.97234 7.075 8.36711C7.59007 7.76189 7.87356 6.99347 7.875 6.19875V1.125H6.75Z" fill="white"/>
<path d="M5.0625 1.125H3.9375V6.73875H5.0625V1.125Z" fill="white"/>
</g>
<defs>
<clipPath id="clip0_150_4421">
<rect width="18" height="18" fill="white"/>
</clipPath>
</defs>
</svg>
