<svg width="18" height="18" viewBox="0 0 18 18" fill="none" xmlns="http://www.w3.org/2000/svg">
<g clip-path="url(#clip0_150_4443)">
<path d="M15.3579 1.12501C15.1578 1.12502 14.9598 1.16514 14.7754 1.24301C14.5911 1.32087 14.4242 1.43489 14.2847 1.57833L14.0636 1.80631L13.8403 1.57833C13.7008 1.43488 13.5339 1.32085 13.3496 1.24298C13.1653 1.16512 12.9672 1.125 12.7671 1.125C12.567 1.125 12.3689 1.16512 12.1846 1.24298C12.0003 1.32085 11.8334 1.43488 11.6939 1.57833C11.4092 1.87208 11.25 2.26509 11.25 2.67416C11.25 3.08324 11.4092 3.47625 11.6939 3.77L14.0636 6.18751L16.4311 3.77C16.7158 3.47625 16.875 3.08324 16.875 2.67416C16.875 2.26509 16.7158 1.87208 16.4311 1.57833C16.2916 1.43488 16.1247 1.32086 15.9404 1.243C15.7561 1.16514 15.558 1.12502 15.3579 1.12501Z" fill="white"/>
<path d="M13.3998 10.1248H8.48419L6.67367 3.35533C6.51926 2.77891 6.1422 2.28744 5.62543 1.98903C5.10866 1.69062 4.49451 1.60972 3.91809 1.76413C3.34168 1.91854 2.8502 2.2956 2.5518 2.81237C2.25339 3.32914 2.17249 3.94329 2.32689 4.51971L4.80679 13.7906C4.8708 14.0299 5.01202 14.2414 5.20854 14.3922C5.40505 14.5431 5.64586 14.6249 5.89359 14.6248H10.6875V15.7498H2.25V16.8748H10.6875C10.9859 16.8748 11.272 16.7563 11.483 16.5453C11.694 16.3344 11.8125 16.0482 11.8125 15.7498V14.6248H13.5C13.8143 14.6245 14.1251 14.5583 14.4123 14.4306C14.6995 14.3029 14.9569 14.1165 15.1677 13.8834C15.3786 13.6502 15.5383 13.3756 15.6367 13.077C15.735 12.7785 15.7698 12.4626 15.7387 12.1498C15.6666 11.5835 15.3881 11.0638 14.9565 10.6901C14.5249 10.3165 13.9706 10.1152 13.3998 10.1248ZM13.5 13.4998H5.89365L3.41359 4.22878C3.33637 3.94057 3.37681 3.63349 3.526 3.3751C3.67519 3.1167 3.92092 2.92815 4.20913 2.85094C4.49734 2.77372 4.80442 2.81415 5.06282 2.96335C5.32121 3.11254 5.50976 3.35827 5.58697 3.64648L7.61996 11.2498H13.5C13.7984 11.2498 14.0845 11.3684 14.2955 11.5794C14.5065 11.7903 14.625 12.0765 14.625 12.3748C14.625 12.6732 14.5065 12.9594 14.2955 13.1703C14.0845 13.3813 13.7984 13.4998 13.5 13.4998Z" fill="white"/>
</g>
<defs>
<clipPath id="clip0_150_4443">
<rect width="18" height="18" fill="white"/>
</clipPath>
</defs>
</svg>
