<svg width="331" height="52" viewBox="0 0 331 52" fill="none" xmlns="http://www.w3.org/2000/svg">
<g clip-path="url(#clip0_429_3790)">
<path d="M178.167 30.0594C178.047 30.0594 177.897 30.1948 177.717 30.4732C177.447 30.8871 177.312 31.3987 177.312 32.0082C177.312 32.6177 177.447 33.1143 177.717 33.5432C177.897 33.814 178.047 33.9495 178.167 33.9495H210.982V42.309H174.103C172.58 42.309 171.328 41.5491 170.338 40.0291C169.438 38.6522 168.988 36.9968 168.988 35.0706V16.6961C168.988 14.7699 169.438 13.1146 170.338 11.7376C171.313 10.2102 172.573 9.4502 174.103 9.4502H210.982V17.8173H178.167C178.047 17.8173 177.897 17.9527 177.717 18.2236C177.447 18.645 177.312 19.1566 177.312 19.7586C177.312 20.3605 177.447 20.8797 177.717 21.2935C177.897 21.5644 178.047 21.7074 178.167 21.7074H210.982V30.0669H178.167V30.0594Z" fill="white"/>
<path d="M268.289 42.3015C266.759 42.3015 265.507 41.5415 264.525 40.0216C263.632 38.6447 263.182 36.9893 263.182 35.0631V16.6961C263.182 14.7624 263.632 13.107 264.525 11.7376C265.507 10.2102 266.759 9.4502 268.289 9.4502H300.01C301.539 9.4502 302.792 10.2102 303.774 11.7376C304.674 13.1146 305.124 14.7699 305.124 16.6961V35.0555C305.124 36.9893 304.674 38.6447 303.774 40.0141C302.792 41.534 301.539 42.294 300.01 42.294H268.289V42.3015ZM295.945 33.9419C296.065 33.9419 296.215 33.8065 296.395 33.5356C296.665 33.1143 296.8 32.6026 296.8 32.0007V19.751C296.8 19.1566 296.665 18.6449 296.395 18.2161C296.215 17.9452 296.065 17.8097 295.945 17.8097H272.286C272.166 17.8097 272.016 17.9452 271.836 18.2161C271.566 18.6374 271.431 19.1491 271.431 19.751V32.0007C271.431 32.5951 271.566 33.1067 271.836 33.5356C272.016 33.8065 272.166 33.9419 272.286 33.9419H295.945Z" fill="white"/>
<path d="M224.436 42.3015V33.0465H243.475L249.542 42.3015H258.458L252.384 33.0465H252.931C254.454 33.0465 255.714 32.2866 256.696 30.7667C257.596 29.3897 258.046 27.7344 258.046 25.8081V16.6961C258.046 14.7699 257.596 13.1146 256.696 11.7376C255.721 10.2102 254.461 9.4502 252.931 9.4502H216.112V17.8173H248.507C248.68 17.8173 248.89 17.9527 249.137 18.2236C249.519 18.645 249.707 19.1115 249.707 19.6081C249.707 21.7676 249.707 22.8736 249.707 22.9338C249.677 23.4605 249.489 23.912 249.144 24.2807C248.889 24.5516 248.68 24.6945 248.515 24.6945H216.119V42.309H224.436V42.3015Z" fill="white"/>
<path d="M112.596 9.4502H104.91L84.7676 42.3015H94.7187L97.5383 37.7794H120.388L123.17 42.3015H133.121L112.596 9.4502ZM102.683 29.4198L108.952 19.2318L115.229 29.4198H102.675H102.683Z" fill="white"/>
<path d="M156.93 9.4502L142.705 32.5198L128.502 9.4502H118.536L139.068 42.3015H146.349L166.851 9.4502H156.93Z" fill="white"/>
<path d="M25.7738 9.71393L0 51.7524H38.5895V43.7465C38.5895 42.949 37.9446 42.3019 37.1497 42.3019H27.7085V37.8926C27.7085 35.703 29.4783 33.9348 31.653 33.9348H46.9208C48.0756 33.9348 49.103 33.2576 49.9878 31.9107L51.0902 30.1576H51.1202L62.8785 11.3166C63.5984 10.1579 64.8657 9.4581 66.223 9.4581H73.8044L58.6191 34.0853H58.5891L57.2393 36.2448C54.8246 40.2853 52.3425 42.3019 49.8079 42.3019H44.0187C43.2238 42.3019 42.5789 42.949 42.5789 43.7465V51.7524H49.7179C56.7219 51.7524 63.2309 48.1332 66.9504 42.1815L93.2716 0H43.0888C36.0248 0 29.4708 3.6794 25.7738 9.71393ZM45.106 19.0817C45.106 21.5873 43.0813 23.6114 40.5917 23.6114C38.102 23.6114 36.0773 21.5798 36.0773 19.0817V13.9802C36.0773 11.4746 38.102 9.45058 40.5917 9.45058C43.0813 9.45058 45.106 11.4822 45.106 13.9802V19.0817Z" fill="white"/>
<path d="M314.518 9.70358V1.82982H311.593V0H319.559V1.82982H316.633V9.70358H314.518Z" fill="white"/>
<path d="M320.697 9.70358V0H322.447L326.338 6.84796H325.411L329.237 0H330.974L331 9.70358H329.015L329.002 3.22991H329.368L326.312 8.67778H325.359L322.238 3.22991H322.682V9.70358H320.697Z" fill="white"/>
</g>
<defs>
<clipPath id="clip0_429_3790">
<rect width="331" height="52" fill="white"/>
</clipPath>
</defs>
</svg>
